<svg xmlns="http://www.w3.org/2000/svg" width="128" height="128"><path style="stroke:none;fill-rule:nonzero;fill:#0091bf;fill-opacity:1" d="M67.8 116.898c-1.698 0-3-1.398-3-3V76.602c0-1.704 1.302-3 3-3h7.802l.699-7.204h-8.5c-1.7 0-3-1.296-3-3v-7.796c0-4.5 3.3-6.602 6.3-6.602H76.5v-6.898H68C56.5 42.102 55.3 51 55.3 54.8v8.597c0 1.704-1.3 3-3 3h-6.902v7.204h6.903c1.699 0 3 1.296 3 3v36.097c0 1.7-1.301 3-3 3-1.7 0-3-1.3-3-3V79.602h-6.903c-1.699 0-3-1.301-3-3V63.3c0-1.7 1.301-3 3-3h6.903v-5.602C49.3 46.102 54.199 36 68 36h11.5c1.7 0 3 1.3 3 3v13c0 1.7-1.3 3-3 3h-8.602c0 .102-.097.3-.097.602v4.796h8.898c.801 0 1.7.403 2.2 1 .601.602.8 1.5.8 2.301l-1.398 13.2c-.2 1.5-1.403 2.703-3 2.703h-7.5V114c-.301 2.398-1.801 2.898-3 2.898Zm0 0"/><path style="stroke:none;fill-rule:nonzero;fill:#0091bf;fill-opacity:1" d="M67.8 116.898c-1.6 0-2.902-1.199-3-2.796-.1-1.704 1.098-3.102 2.802-3.204C92 109.102 111 88.5 111 64c0-25.898-21.102-47-47-47S17 38.102 17 64c0 21.8 14.8 40.602 35.898 45.7 1.602.402 2.602 2 2.204 3.6-.403 1.598-2 2.598-3.602 2.2C27.7 109.8 11 88.602 11 64.102c0-29.204 23.8-53 53-53s53 23.796 53 53c0 27.597-21.5 50.796-49 52.796h-.2Zm0 0"/></svg>