<svg id="Blanco" xmlns="http://www.w3.org/2000/svg" width="1000" height="1000"><defs><style>.cls-1,.cls-2{fill:#fff}.cls-1,.cls-3{fill-rule:evenodd}.cls-3{fill:none;stroke:#fff;stroke-width:47px}</style></defs><path id="Forma_1" data-name="Forma 1" class="cls-1" d="M272 312c-8.937 0-48-4.817-48 128 0 109.611 30.226 122.089 39 122.826 9.187.774 54 13.574 54-124.826 0-130.388-36.063-126-45-126Zm1-71c-6.04-.247-129-3.185-129 198 0 172.694 101.136 194.316 115 194s140.2 5.117 137-197-116.647-194.74-123-195Z"/><path id="Forma_2" data-name="Forma 2" class="cls-1" d="m428 251-16 371h67l1-230 27 170h62l25-167 5 229h68l-17-374h-81l-29 211-30-210h-82Z"/><circle id="Elipse_1" data-name="Elipse 1" class="cls-2" cx="755" cy="305" r="55"/><path id="Forma_3" data-name="Forma 3" class="cls-1" d="m723 503-30 114 61 2 55-125s18.124-49.786-35-69-51 78-51 78Z"/><circle id="Forma_3_copia" data-name="Forma 3 copia" class="cls-2" cx="755" cy="472" r="55"/><path id="Forma_7" data-name="Forma 7" class="cls-1" d="M468 649v160h27v-68h37v68h29V650h-28v62h-37v-63h-28Z"/><path id="Forma_7-2" data-name="Forma 7" class="cls-1" d="M581 649v160h27v-68h37v68h29V650h-28v62h-37v-63h-28Z"/><path id="Forma_8" data-name="Forma 8" class="cls-1" d="m451 665-17 20s-12.305-16.609-28-14-31.19 11.7-32 58c-.428 24.488 9.734 55.548 27 57 25.571 2.151 35-15 35-15l16 18s-6.852 23.659-51 25c-35.4 1.075-58.627-39.2-58-90 .525-42.489 24.225-79 63-81 31.625-1.63 45 22 45 22Z"/><g id="Circulo"><path id="Forma_9" data-name="Forma 9" class="cls-3" d="M109.16 769.744S68.631 721.093 45.623 641.7C9.549 517.232 2.422 320.686 162.265 160.842 351.643-28.535 644.472-.953 787 121"/><path id="Forma_9-2" data-name="Forma 9" class="cls-3" d="M891.689 231.035s40.5 48.641 63.5 128.014C991.238 483.5 998.36 680 838.617 839.814c-189.26 189.336-481.906 161.766-624.345 39.835"/></g></svg>